<?xml version="1.0" encoding="UTF-8" standalone="no"?>
<!DOCTYPE svg PUBLIC "-//W3C//DTD SVG 1.1//EN"
 "http://www.w3.org/Graphics/SVG/1.1/DTD/svg11.dtd">
<!-- Generated by graphviz version 2.38.0 (20140413.2041)
 -->
<!-- Title: G Pages: 1 -->
<svg width="848pt" height="774pt"
 viewBox="0.00 0.00 848.02 773.60" xmlns="http://www.w3.org/2000/svg" xmlns:xlink="http://www.w3.org/1999/xlink">
<g id="graph0" class="graph" transform="scale(1 1) rotate(0) translate(4 769.6)">
<title>G</title>
<polygon fill="white" stroke="none" points="-4,4 -4,-769.6 844.024,-769.6 844.024,4 -4,4"/>
<!-- DimShuffle{x} -->
<g id="node1" class="node"><title>DimShuffle{x}</title>
<ellipse fill="none" stroke="black" cx="615.926" cy="-195.6" rx="70.9529" ry="18"/>
<text text-anchor="middle" x="615.926" y="-191.4" font-family="Times,serif" font-size="14.00">DimShuffle{x}</text>
</g>
<!-- Elemwise{gt,no_inplace} -->
<g id="node16" class="node"><title>Elemwise{gt,no_inplace}</title>
<ellipse fill="#ffaabb" stroke="black" cx="503.926" cy="-106.8" rx="110.862" ry="18"/>
<text text-anchor="middle" x="503.926" y="-102.6" font-family="Times,serif" font-size="14.00">Elemwise{gt,no_inplace}</text>
</g>
<!-- DimShuffle{x}&#45;&gt;Elemwise{gt,no_inplace} -->
<g id="edge16" class="edge"><title>DimShuffle{x}&#45;&gt;Elemwise{gt,no_inplace}</title>
<path fill="none" stroke="black" d="M605.701,-177.552C598.454,-166.561 587.914,-152.551 575.926,-142.8 569.262,-137.379 561.618,-132.535 553.856,-128.306"/>
<polygon fill="black" stroke="black" points="555.237,-125.081 544.742,-123.626 552.039,-131.308 555.237,-125.081"/>
<text text-anchor="middle" x="679.61" y="-147" font-family="Times,serif" font-size="14.00">1 TensorType(float32, (True,))</text>
</g>
<!-- val=0.5 TensorType(float32, scalar) -->
<g id="node2" class="node"><title>val=0.5 TensorType(float32, scalar)</title>
<polygon fill="green" stroke="black" points="735.183,-302.4 516.67,-302.4 516.67,-266.4 735.183,-266.4 735.183,-302.4"/>
<text text-anchor="middle" x="625.926" y="-280.2" font-family="Times,serif" font-size="14.00">val=0.5 TensorType(float32, scalar)</text>
</g>
<!-- val=0.5 TensorType(float32, scalar)&#45;&gt;DimShuffle{x} -->
<g id="edge1" class="edge"><title>val=0.5 TensorType(float32, scalar)&#45;&gt;DimShuffle{x}</title>
<path fill="none" stroke="black" d="M623.951,-266.251C622.554,-254.125 620.652,-237.619 619.051,-223.719"/>
<polygon fill="black" stroke="black" points="622.52,-223.247 617.898,-213.713 615.566,-224.048 622.52,-223.247"/>
<text text-anchor="middle" x="700.055" y="-235.8" font-family="Times,serif" font-size="14.00">TensorType(float32, scalar)</text>
</g>
<!-- DimShuffle{x} id=1 -->
<g id="node3" class="node"><title>DimShuffle{x} id=1</title>
<ellipse fill="none" stroke="black" cx="357.926" cy="-570" rx="90.853" ry="18"/>
<text text-anchor="middle" x="357.926" y="-565.8" font-family="Times,serif" font-size="14.00">DimShuffle{x} id=1</text>
</g>
<!-- Elemwise{sub,no_inplace} -->
<g id="node12" class="node"><title>Elemwise{sub,no_inplace}</title>
<ellipse fill="#ffaabb" stroke="black" cx="477.926" cy="-481.2" rx="116.662" ry="18"/>
<text text-anchor="middle" x="477.926" y="-477" font-family="Times,serif" font-size="14.00">Elemwise{sub,no_inplace}</text>
</g>
<!-- DimShuffle{x} id=1&#45;&gt;Elemwise{sub,no_inplace} -->
<g id="edge9" class="edge"><title>DimShuffle{x} id=1&#45;&gt;Elemwise{sub,no_inplace}</title>
<path fill="none" stroke="black" d="M355.701,-551.745C355.247,-540.666 356.623,-526.636 364.56,-517.2 371.074,-509.456 379.263,-503.396 388.243,-498.658"/>
<polygon fill="black" stroke="black" points="389.881,-501.756 397.455,-494.347 386.914,-495.415 389.881,-501.756"/>
<text text-anchor="middle" x="451.61" y="-521.4" font-family="Times,serif" font-size="14.00">1 TensorType(float64, (True,))</text>
</g>
<!-- b -->
<g id="node4" class="node"><title>b</title>
<polygon fill="green" stroke="black" points="384.926,-676.8 330.926,-676.8 330.926,-640.8 384.926,-640.8 384.926,-676.8"/>
<text text-anchor="middle" x="357.926" y="-654.6" font-family="Times,serif" font-size="14.00">b</text>
</g>
<!-- b&#45;&gt;DimShuffle{x} id=1 -->
<g id="edge2" class="edge"><title>b&#45;&gt;DimShuffle{x} id=1</title>
<path fill="none" stroke="black" d="M357.926,-640.651C357.926,-628.525 357.926,-612.019 357.926,-598.119"/>
<polygon fill="black" stroke="black" points="361.427,-598.113 357.926,-588.113 354.427,-598.113 361.427,-598.113"/>
<text text-anchor="middle" x="436.055" y="-610.2" font-family="Times,serif" font-size="14.00">TensorType(float64, scalar)</text>
</g>
<!-- dot -->
<g id="node5" class="node"><title>dot</title>
<ellipse fill="none" stroke="black" cx="583.926" cy="-658.8" rx="27" ry="18"/>
<text text-anchor="middle" x="583.926" y="-654.6" font-family="Times,serif" font-size="14.00">dot</text>
</g>
<!-- Elemwise{neg,no_inplace} -->
<g id="node11" class="node"><title>Elemwise{neg,no_inplace}</title>
<ellipse fill="#ffaabb" stroke="black" cx="583.926" cy="-570" rx="117.225" ry="18"/>
<text text-anchor="middle" x="583.926" y="-565.8" font-family="Times,serif" font-size="14.00">Elemwise{neg,no_inplace}</text>
</g>
<!-- dot&#45;&gt;Elemwise{neg,no_inplace} -->
<g id="edge7" class="edge"><title>dot&#45;&gt;Elemwise{neg,no_inplace}</title>
<path fill="none" stroke="black" d="M583.926,-640.651C583.926,-628.525 583.926,-612.019 583.926,-598.119"/>
<polygon fill="black" stroke="black" points="587.427,-598.113 583.926,-588.113 580.427,-598.113 587.427,-598.113"/>
<text text-anchor="middle" x="663.225" y="-610.2" font-family="Times,serif" font-size="14.00">TensorType(float64, vector)</text>
</g>
<!-- x -->
<g id="node6" class="node"><title>x</title>
<polygon fill="green" stroke="black" points="513.926,-765.6 459.926,-765.6 459.926,-729.6 513.926,-729.6 513.926,-765.6"/>
<text text-anchor="middle" x="486.926" y="-743.4" font-family="Times,serif" font-size="14.00">x</text>
</g>
<!-- x&#45;&gt;dot -->
<g id="edge3" class="edge"><title>x&#45;&gt;dot</title>
<path fill="none" stroke="black" d="M482.756,-729.19C481.193,-718.324 481.229,-704.591 488.262,-694.8 501.74,-676.038 526.37,-667.31 547.263,-663.261"/>
<polygon fill="black" stroke="black" points="547.859,-666.71 557.154,-661.626 546.717,-659.804 547.859,-666.71"/>
<text text-anchor="middle" x="574.259" y="-699" font-family="Times,serif" font-size="14.00">0 TensorType(float64, matrix)</text>
</g>
<!-- w -->
<g id="node7" class="node"><title>w</title>
<polygon fill="green" stroke="black" points="707.926,-765.6 653.926,-765.6 653.926,-729.6 707.926,-729.6 707.926,-765.6"/>
<text text-anchor="middle" x="680.926" y="-743.4" font-family="Times,serif" font-size="14.00">w</text>
</g>
<!-- w&#45;&gt;dot -->
<g id="edge4" class="edge"><title>w&#45;&gt;dot</title>
<path fill="none" stroke="black" d="M677.041,-729.426C673.789,-718.381 668.157,-704.359 658.926,-694.8 647.816,-683.294 632.188,-675.177 618.071,-669.677"/>
<polygon fill="black" stroke="black" points="619.208,-666.366 608.614,-666.278 616.841,-672.954 619.208,-666.366"/>
<text text-anchor="middle" x="755.475" y="-699" font-family="Times,serif" font-size="14.00">1 TensorType(float64, vector)</text>
</g>
<!-- DimShuffle{x} id=3 -->
<g id="node8" class="node"><title>DimShuffle{x} id=3</title>
<ellipse fill="none" stroke="black" cx="251.926" cy="-392.4" rx="90.853" ry="18"/>
<text text-anchor="middle" x="251.926" y="-388.2" font-family="Times,serif" font-size="14.00">DimShuffle{x} id=3</text>
</g>
<!-- Elemwise{add,no_inplace} -->
<g id="node14" class="node"><title>Elemwise{add,no_inplace}</title>
<ellipse fill="#ffaabb" stroke="black" cx="381.926" cy="-284.4" rx="117.225" ry="18"/>
<text text-anchor="middle" x="381.926" y="-280.2" font-family="Times,serif" font-size="14.00">Elemwise{add,no_inplace}</text>
</g>
<!-- DimShuffle{x} id=3&#45;&gt;Elemwise{add,no_inplace} -->
<g id="edge11" class="edge"><title>DimShuffle{x} id=3&#45;&gt;Elemwise{add,no_inplace}</title>
<path fill="none" stroke="black" d="M249.945,-374.358C249.084,-358.482 250.477,-335.111 263.435,-320.4 270.6,-312.267 279.553,-305.98 289.309,-301.129"/>
<polygon fill="black" stroke="black" points="290.745,-304.321 298.466,-297.065 287.906,-297.922 290.745,-304.321"/>
<text text-anchor="middle" x="341.672" y="-334.2" font-family="Times,serif" font-size="14.00">0 TensorType(int8, (True,))</text>
</g>
<!-- val=1 TensorType(int8, scalar) -->
<g id="node9" class="node"><title>val=1 TensorType(int8, scalar)</title>
<polygon fill="green" stroke="black" points="264.808,-499.2 75.045,-499.2 75.045,-463.2 264.808,-463.2 264.808,-499.2"/>
<text text-anchor="middle" x="169.926" y="-477" font-family="Times,serif" font-size="14.00">val=1 TensorType(int8, scalar)</text>
</g>
<!-- val=1 TensorType(int8, scalar)&#45;&gt;DimShuffle{x} id=3 -->
<g id="edge5" class="edge"><title>val=1 TensorType(int8, scalar)&#45;&gt;DimShuffle{x} id=3</title>
<path fill="none" stroke="black" d="M207.905,-463.014C215.915,-458.11 223.788,-452.168 229.926,-445.2 236.147,-438.139 240.801,-429.059 244.186,-420.479"/>
<polygon fill="black" stroke="black" points="247.579,-421.381 247.596,-410.787 240.976,-419.058 247.579,-421.381"/>
<text text-anchor="middle" x="310.117" y="-432.6" font-family="Times,serif" font-size="14.00">TensorType(int8, scalar)</text>
</g>
<!-- DimShuffle{x} id=4 -->
<g id="node10" class="node"><title>DimShuffle{x} id=4</title>
<ellipse fill="none" stroke="black" cx="90.9265" cy="-338.4" rx="90.853" ry="18"/>
<text text-anchor="middle" x="90.9265" y="-334.2" font-family="Times,serif" font-size="14.00">DimShuffle{x} id=4</text>
</g>
<!-- val=1 TensorType(int8, scalar)&#45;&gt;DimShuffle{x} id=4 -->
<g id="edge6" class="edge"><title>val=1 TensorType(int8, scalar)&#45;&gt;DimShuffle{x} id=4</title>
<path fill="none" stroke="black" d="M106.839,-463.024C99.2278,-458.42 92.4325,-452.587 87.5449,-445.2 72.1555,-421.941 76.2003,-389.078 82.0459,-366.172"/>
<polygon fill="black" stroke="black" points="85.4509,-366.992 84.7952,-356.418 78.7135,-365.093 85.4509,-366.992"/>
<text text-anchor="middle" x="157.117" y="-432.6" font-family="Times,serif" font-size="14.00">TensorType(int8, scalar)</text>
</g>
<!-- Elemwise{true_div,no_inplace} -->
<g id="node15" class="node"><title>Elemwise{true_div,no_inplace}</title>
<ellipse fill="#ffaabb" stroke="black" cx="381.926" cy="-195.6" rx="135.203" ry="18"/>
<text text-anchor="middle" x="381.926" y="-191.4" font-family="Times,serif" font-size="14.00">Elemwise{true_div,no_inplace}</text>
</g>
<!-- DimShuffle{x} id=4&#45;&gt;Elemwise{true_div,no_inplace} -->
<g id="edge13" class="edge"><title>DimShuffle{x} id=4&#45;&gt;Elemwise{true_div,no_inplace}</title>
<path fill="none" stroke="black" d="M88.2482,-320.283C86.7834,-304.353 87.4084,-280.944 100.435,-266.4 124.169,-239.903 207.461,-221.391 277.333,-210.122"/>
<polygon fill="black" stroke="black" points="278.204,-213.528 287.536,-208.512 277.113,-206.614 278.204,-213.528"/>
<text text-anchor="middle" x="178.672" y="-280.2" font-family="Times,serif" font-size="14.00">0 TensorType(int8, (True,))</text>
</g>
<!-- Elemwise{neg,no_inplace}&#45;&gt;Elemwise{sub,no_inplace} -->
<g id="edge8" class="edge"><title>Elemwise{neg,no_inplace}&#45;&gt;Elemwise{sub,no_inplace}</title>
<path fill="none" stroke="black" d="M572.521,-551.689C564.791,-540.861 553.842,-527.135 541.926,-517.2 535.908,-512.182 529.06,-507.545 522.135,-503.398"/>
<polygon fill="black" stroke="black" points="523.801,-500.32 513.379,-498.416 520.339,-506.404 523.801,-500.32"/>
<text text-anchor="middle" x="643.475" y="-521.4" font-family="Times,serif" font-size="14.00">0 TensorType(float64, vector)</text>
</g>
<!-- Elemwise{exp,no_inplace} -->
<g id="node13" class="node"><title>Elemwise{exp,no_inplace}</title>
<ellipse fill="#ffaabb" stroke="black" cx="477.926" cy="-392.4" rx="117.225" ry="18"/>
<text text-anchor="middle" x="477.926" y="-388.2" font-family="Times,serif" font-size="14.00">Elemwise{exp,no_inplace}</text>
</g>
<!-- Elemwise{sub,no_inplace}&#45;&gt;Elemwise{exp,no_inplace} -->
<g id="edge10" class="edge"><title>Elemwise{sub,no_inplace}&#45;&gt;Elemwise{exp,no_inplace}</title>
<path fill="none" stroke="black" d="M477.926,-463.051C477.926,-450.925 477.926,-434.419 477.926,-420.519"/>
<polygon fill="black" stroke="black" points="481.427,-420.513 477.926,-410.513 474.427,-420.513 481.427,-420.513"/>
<text text-anchor="middle" x="557.225" y="-432.6" font-family="Times,serif" font-size="14.00">TensorType(float64, vector)</text>
</g>
<!-- Elemwise{exp,no_inplace}&#45;&gt;Elemwise{add,no_inplace} -->
<g id="edge12" class="edge"><title>Elemwise{exp,no_inplace}&#45;&gt;Elemwise{add,no_inplace}</title>
<path fill="none" stroke="black" d="M466.168,-374.26C455.605,-359.366 439.282,-337.552 422.926,-320.4 419.306,-316.603 415.304,-312.79 411.263,-309.151"/>
<polygon fill="black" stroke="black" points="413.371,-306.345 403.531,-302.416 408.773,-311.624 413.371,-306.345"/>
<text text-anchor="middle" x="537.475" y="-334.2" font-family="Times,serif" font-size="14.00">1 TensorType(float64, vector)</text>
</g>
<!-- Elemwise{add,no_inplace}&#45;&gt;Elemwise{true_div,no_inplace} -->
<g id="edge14" class="edge"><title>Elemwise{add,no_inplace}&#45;&gt;Elemwise{true_div,no_inplace}</title>
<path fill="none" stroke="black" d="M381.926,-266.251C381.926,-254.125 381.926,-237.619 381.926,-223.719"/>
<polygon fill="black" stroke="black" points="385.427,-223.713 381.926,-213.713 378.427,-223.713 385.427,-223.713"/>
<text text-anchor="middle" x="466.475" y="-235.8" font-family="Times,serif" font-size="14.00">1 TensorType(float64, vector)</text>
</g>
<!-- Elemwise{true_div,no_inplace}&#45;&gt;Elemwise{gt,no_inplace} -->
<g id="edge15" class="edge"><title>Elemwise{true_div,no_inplace}&#45;&gt;Elemwise{gt,no_inplace}</title>
<path fill="none" stroke="black" d="M385.099,-177.116C387.97,-165.94 393.272,-151.889 402.829,-142.8 410.377,-135.622 419.469,-129.91 429.067,-125.365"/>
<polygon fill="black" stroke="black" points="430.586,-128.521 438.39,-121.355 427.82,-122.091 430.586,-128.521"/>
<text text-anchor="middle" x="487.475" y="-147" font-family="Times,serif" font-size="14.00">0 TensorType(float64, vector)</text>
</g>
<!-- TensorType(int8, vector) -->
<g id="node17" class="node"><title>TensorType(int8, vector)</title>
<polygon fill="blue" stroke="black" points="582.149,-36 425.704,-36 425.704,-0 582.149,-0 582.149,-36"/>
<text text-anchor="middle" x="503.926" y="-13.8" font-family="Times,serif" font-size="14.00">TensorType(int8, vector)</text>
</g>
<!-- Elemwise{gt,no_inplace}&#45;&gt;TensorType(int8, vector) -->
<g id="edge17" class="edge"><title>Elemwise{gt,no_inplace}&#45;&gt;TensorType(int8, vector)</title>
<path fill="none" stroke="black" d="M503.926,-88.6511C503.926,-76.5249 503.926,-60.019 503.926,-46.119"/>
<polygon fill="black" stroke="black" points="507.427,-46.1132 503.926,-36.1133 500.427,-46.1133 507.427,-46.1132"/>
<text text-anchor="middle" x="574.288" y="-58.2" font-family="Times,serif" font-size="14.00">TensorType(int8, vector)</text>
</g>
</g>
</svg>
