<?xml version="1.0" encoding="UTF-8" standalone="no"?>
<!DOCTYPE svg PUBLIC "-//W3C//DTD SVG 1.1//EN"
 "http://www.w3.org/Graphics/SVG/1.1/DTD/svg11.dtd">
<!-- Generated by graphviz version 2.38.0 (20140413.2041)
 -->
<!-- Title: G Pages: 1 -->
<svg width="2952pt" height="882pt"
 viewBox="0.00 0.00 2952.13 881.60" xmlns="http://www.w3.org/2000/svg" xmlns:xlink="http://www.w3.org/1999/xlink">
<g id="graph0" class="graph" transform="scale(1 1) rotate(0) translate(4 877.6)">
<title>G</title>
<polygon fill="white" stroke="none" points="-4,4 -4,-877.6 2948.13,-877.6 2948.13,4 -4,4"/>
<!-- InplaceDimShuffle{x} -->
<g id="node1" class="node"><title>InplaceDimShuffle{x}</title>
<ellipse fill="none" stroke="black" cx="576" cy="-550.8" rx="99.2835" ry="18"/>
<text text-anchor="middle" x="576" y="-546.6" font-family="Times,serif" font-size="14.00">InplaceDimShuffle{x}</text>
</g>
<!-- Elemwise{Composite{((&#45;i0) &#45; i1)}}[(0, 0)] -->
<g id="node19" class="node"><title>Elemwise{Composite{((&#45;i0) &#45; i1)}}[(0, 0)]</title>
<ellipse fill="#ffaabb" stroke="black" cx="806" cy="-462" rx="175.974" ry="18"/>
<text text-anchor="middle" x="806" y="-457.8" font-family="Times,serif" font-size="14.00">Elemwise{Composite{((&#45;i0) &#45; i1)}}[(0, 0)]</text>
</g>
<!-- InplaceDimShuffle{x}&#45;&gt;Elemwise{Composite{((&#45;i0) &#45; i1)}}[(0, 0)] -->
<g id="edge20" class="edge"><title>InplaceDimShuffle{x}&#45;&gt;Elemwise{Composite{((&#45;i0) &#45; i1)}}[(0, 0)]</title>
<path fill="none" stroke="black" d="M587.275,-532.66C595.848,-521.038 608.693,-506.327 623.634,-498 639.316,-489.26 656.804,-482.667 674.572,-477.699"/>
<polygon fill="black" stroke="black" points="675.678,-481.027 684.462,-475.103 673.901,-474.257 675.678,-481.027"/>
<text text-anchor="middle" x="710.683" y="-502.2" font-family="Times,serif" font-size="14.00">1 TensorType(float64, (True,))</text>
</g>
<!-- b -->
<g id="node2" class="node"><title>b</title>
<polygon fill="green" stroke="black" points="97,-676.8 43,-676.8 43,-640.8 97,-640.8 97,-676.8"/>
<text text-anchor="middle" x="70" y="-654.6" font-family="Times,serif" font-size="14.00">b</text>
</g>
<!-- b&#45;&gt;InplaceDimShuffle{x} -->
<g id="edge1" class="edge"><title>b&#45;&gt;InplaceDimShuffle{x}</title>
<path fill="none" stroke="blue" d="M97.0706,-646.341C135.899,-630.397 209.982,-601.794 275.743,-586.8 340.679,-571.995 415.022,-563.267 473.487,-558.23"/>
<polygon fill="blue" stroke="blue" points="473.797,-561.716 483.47,-557.392 473.212,-554.74 473.797,-561.716"/>
<text text-anchor="middle" x="354.128" y="-600.6" font-family="Times,serif" font-size="14.00">TensorType(float64, scalar)</text>
</g>
<!-- Elemwise{Composite{(i0 &#45; (i1 * i2))}}[(0, 0)] -->
<g id="node35" class="node"><title>Elemwise{Composite{(i0 &#45; (i1 * i2))}}[(0, 0)]</title>
<ellipse fill="#ffaabb" stroke="black" cx="717" cy="-18" rx="189.882" ry="18"/>
<text text-anchor="middle" x="717" y="-13.8" font-family="Times,serif" font-size="14.00">Elemwise{Composite{(i0 &#45; (i1 * i2))}}[(0, 0)]</text>
</g>
<!-- b&#45;&gt;Elemwise{Composite{(i0 &#45; (i1 * i2))}}[(0, 0)] -->
<g id="edge48" class="edge"><title>b&#45;&gt;Elemwise{Composite{(i0 &#45; (i1 * i2))}}[(0, 0)]</title>
<path fill="none" stroke="red" d="M49.3763,-640.583C28.728,-621.298 0,-587.968 0,-551.8 0,-551.8 0,-551.8 0,-105.8 0,-52.7256 313.63,-31.8876 526.034,-23.8609"/>
<polygon fill="red" stroke="red" points="526.207,-27.357 536.071,-23.4883 525.948,-20.3618 526.207,-27.357"/>
<text text-anchor="middle" x="83.3784" y="-324.6" font-family="Times,serif" font-size="14.00">0 TensorType(float64, scalar)</text>
</g>
<!-- Shape_i{0} -->
<g id="node3" class="node"><title>Shape_i{0}</title>
<ellipse fill="cyan" stroke="black" cx="1193" cy="-766.8" rx="56.4901" ry="18"/>
<text text-anchor="middle" x="1193" y="-762.6" font-family="Times,serif" font-size="14.00">Shape_i{0}</text>
</g>
<!-- Alloc -->
<g id="node11" class="node"><title>Alloc</title>
<ellipse fill="#ffaa22" stroke="black" cx="854" cy="-658.8" rx="32.4808" ry="18"/>
<text text-anchor="middle" x="854" y="-654.6" font-family="Times,serif" font-size="14.00">Alloc</text>
</g>
<!-- Shape_i{0}&#45;&gt;Alloc -->
<g id="edge9" class="edge"><title>Shape_i{0}&#45;&gt;Alloc</title>
<path fill="none" stroke="black" d="M1151.85,-754.266C1137.28,-748.796 1121.45,-741.139 1109.12,-730.8 1094.55,-718.585 1102.13,-704.877 1086,-694.8 1056.97,-676.658 966.772,-682.407 933,-676.8 920.005,-674.642 905.914,-671.78 893.28,-669.021"/>
<polygon fill="black" stroke="black" points="894.031,-665.603 883.509,-666.846 892.509,-672.435 894.031,-665.603"/>
<text text-anchor="middle" x="1187.94" y="-708.6" font-family="Times,serif" font-size="14.00">1 TensorType(int64, scalar)</text>
</g>
<!-- Elemwise{eq,no_inplace} -->
<g id="node13" class="node"><title>Elemwise{eq,no_inplace}</title>
<ellipse fill="#ffaabb" stroke="black" cx="1695" cy="-462" rx="112.068" ry="18"/>
<text text-anchor="middle" x="1695" y="-457.8" font-family="Times,serif" font-size="14.00">Elemwise{eq,no_inplace}</text>
</g>
<!-- Shape_i{0}&#45;&gt;Elemwise{eq,no_inplace} -->
<g id="edge11" class="edge"><title>Shape_i{0}&#45;&gt;Elemwise{eq,no_inplace}</title>
<path fill="none" stroke="black" d="M1225.87,-752.005C1238.5,-746.149 1252.81,-738.82 1265,-730.8 1346.91,-676.917 1346.97,-635.404 1432.12,-586.8 1475.49,-562.043 1602.81,-541.522 1645,-514.8 1656.38,-507.589 1667.05,-497.265 1675.58,-487.728"/>
<polygon fill="black" stroke="black" points="1678.36,-489.859 1682.21,-479.988 1673.05,-485.304 1678.36,-489.859"/>
<text text-anchor="middle" x="1511.94" y="-600.6" font-family="Times,serif" font-size="14.00">1 TensorType(int64, scalar)</text>
</g>
<!-- x -->
<g id="node4" class="node"><title>x</title>
<polygon fill="green" stroke="black" points="1220,-873.6 1166,-873.6 1166,-837.6 1220,-837.6 1220,-873.6"/>
<text text-anchor="middle" x="1193" y="-851.4" font-family="Times,serif" font-size="14.00">x</text>
</g>
<!-- x&#45;&gt;Shape_i{0} -->
<g id="edge2" class="edge"><title>x&#45;&gt;Shape_i{0}</title>
<path fill="none" stroke="black" d="M1193,-837.451C1193,-825.325 1193,-808.819 1193,-794.919"/>
<polygon fill="black" stroke="black" points="1196.5,-794.913 1193,-784.913 1189.5,-794.913 1196.5,-794.913"/>
<text text-anchor="middle" x="1273.08" y="-807" font-family="Times,serif" font-size="14.00">TensorType(float64, matrix)</text>
</g>
<!-- InplaceDimShuffle{1,0} -->
<g id="node5" class="node"><title>InplaceDimShuffle{1,0}</title>
<ellipse fill="none" stroke="black" cx="1680" cy="-712.8" rx="106.269" ry="18"/>
<text text-anchor="middle" x="1680" y="-708.6" font-family="Times,serif" font-size="14.00">InplaceDimShuffle{1,0}</text>
</g>
<!-- x&#45;&gt;InplaceDimShuffle{1,0} -->
<g id="edge3" class="edge"><title>x&#45;&gt;InplaceDimShuffle{1,0}</title>
<path fill="none" stroke="blue" d="M1220.2,-849.713C1252.91,-843.626 1309.35,-832.448 1357,-819.6 1453.67,-793.532 1564.08,-755.543 1627.56,-732.886"/>
<polygon fill="blue" stroke="blue" points="1629.1,-736.052 1637.34,-729.386 1626.74,-729.462 1629.1,-736.052"/>
<text text-anchor="middle" x="1495.08" y="-807" font-family="Times,serif" font-size="14.00">TensorType(float64, matrix)</text>
</g>
<!-- CGemv{inplace} -->
<g id="node15" class="node"><title>CGemv{inplace}</title>
<ellipse fill="none" stroke="black" cx="797" cy="-550.8" rx="78.4578" ry="18"/>
<text text-anchor="middle" x="797" y="-546.6" font-family="Times,serif" font-size="14.00">CGemv{inplace}</text>
</g>
<!-- x&#45;&gt;CGemv{inplace} -->
<g id="edge15" class="edge"><title>x&#45;&gt;CGemv{inplace}</title>
<path fill="none" stroke="black" d="M1165.61,-851.693C1107.58,-843.928 972.582,-817.023 911.336,-730.8 874.159,-678.462 939.406,-637.481 900,-586.8 892.483,-577.132 882.165,-570.116 870.949,-565.029"/>
<polygon fill="black" stroke="black" points="871.942,-561.657 861.357,-561.194 869.343,-568.157 871.942,-561.657"/>
<text text-anchor="middle" x="997.332" y="-708.6" font-family="Times,serif" font-size="14.00">2 TensorType(float64, matrix)</text>
</g>
<!-- x.T -->
<g id="node6" class="node"><title>x.T</title>
<ellipse fill="none" stroke="black" cx="2258" cy="-604.8" rx="27" ry="18"/>
<text text-anchor="middle" x="2258" y="-600.6" font-family="Times,serif" font-size="14.00">x.T</text>
</g>
<!-- InplaceDimShuffle{1,0}&#45;&gt;x.T -->
<g id="edge4" class="edge"><title>InplaceDimShuffle{1,0}&#45;&gt;x.T</title>
<path fill="none" stroke="black" d="M1749.15,-699.119C1873.05,-676.396 2128.72,-629.509 2222.5,-612.31"/>
<polygon fill="black" stroke="black" points="2223.15,-615.75 2232.35,-610.503 2221.89,-608.865 2223.15,-615.75"/>
<text text-anchor="middle" x="2152.08" y="-654.6" font-family="Times,serif" font-size="14.00">TensorType(float64, matrix)</text>
</g>
<!-- CGemv{inplace} id=19 -->
<g id="node32" class="node"><title>CGemv{inplace} id=19</title>
<ellipse fill="none" stroke="black" cx="2443" cy="-106.8" rx="103.015" ry="18"/>
<text text-anchor="middle" x="2443" y="-102.6" font-family="Times,serif" font-size="14.00">CGemv{inplace} id=19</text>
</g>
<!-- x.T&#45;&gt;CGemv{inplace} id=19 -->
<g id="edge45" class="edge"><title>x.T&#45;&gt;CGemv{inplace} id=19</title>
<path fill="none" stroke="black" d="M2284.9,-601.979C2336.21,-596.891 2443,-577.842 2443,-507.4 2443,-507.4 2443,-507.4 2443,-194.6 2443,-174.821 2443,-152.508 2443,-135.457"/>
<polygon fill="black" stroke="black" points="2446.5,-135.092 2443,-125.092 2439.5,-135.092 2446.5,-135.092"/>
<text text-anchor="middle" x="2528.33" y="-369" font-family="Times,serif" font-size="14.00">2 TensorType(float64, matrix)</text>
</g>
<!-- Shape_i{0} id=3 -->
<g id="node7" class="node"><title>Shape_i{0} id=3</title>
<ellipse fill="cyan" stroke="black" cx="1692" cy="-550.8" rx="76.3899" ry="18"/>
<text text-anchor="middle" x="1692" y="-546.6" font-family="Times,serif" font-size="14.00">Shape_i{0} id=3</text>
</g>
<!-- Shape_i{0} id=3&#45;&gt;Elemwise{eq,no_inplace} -->
<g id="edge10" class="edge"><title>Shape_i{0} id=3&#45;&gt;Elemwise{eq,no_inplace}</title>
<path fill="none" stroke="black" d="M1692.23,-532.529C1692.41,-522.456 1692.69,-509.506 1693.12,-498 1693.21,-495.446 1693.33,-492.788 1693.46,-490.129"/>
<polygon fill="black" stroke="black" points="1696.95,-490.251 1693.97,-480.085 1689.96,-489.892 1696.95,-490.251"/>
<text text-anchor="middle" x="1771.94" y="-502.2" font-family="Times,serif" font-size="14.00">0 TensorType(int64, scalar)</text>
</g>
<!-- InplaceDimShuffle{x} id=7 -->
<g id="node14" class="node"><title>InplaceDimShuffle{x} id=7</title>
<ellipse fill="none" stroke="black" cx="2121" cy="-462" rx="119.184" ry="18"/>
<text text-anchor="middle" x="2121" y="-457.8" font-family="Times,serif" font-size="14.00">InplaceDimShuffle{x} id=7</text>
</g>
<!-- Shape_i{0} id=3&#45;&gt;InplaceDimShuffle{x} id=7 -->
<g id="edge12" class="edge"><title>Shape_i{0} id=3&#45;&gt;InplaceDimShuffle{x} id=7</title>
<path fill="none" stroke="blue" d="M1748.08,-538.452C1823.46,-523.202 1957.79,-496.022 2042.99,-478.785"/>
<polygon fill="blue" stroke="blue" points="2043.76,-482.199 2052.87,-476.785 2042.37,-475.338 2043.76,-482.199"/>
<text text-anchor="middle" x="2017.69" y="-502.2" font-family="Times,serif" font-size="14.00">TensorType(int64, scalar)</text>
</g>
<!-- y -->
<g id="node8" class="node"><title>y</title>
<polygon fill="green" stroke="black" points="1564,-676.8 1510,-676.8 1510,-640.8 1564,-640.8 1564,-676.8"/>
<text text-anchor="middle" x="1537" y="-654.6" font-family="Times,serif" font-size="14.00">y</text>
</g>
<!-- y&#45;&gt;Shape_i{0} id=3 -->
<g id="edge5" class="edge"><title>y&#45;&gt;Shape_i{0} id=3</title>
<path fill="none" stroke="black" d="M1561.9,-640.769C1588.43,-622.631 1630.51,-593.85 1659.6,-573.958"/>
<polygon fill="black" stroke="black" points="1661.9,-576.626 1668.18,-568.092 1657.95,-570.848 1661.9,-576.626"/>
<text text-anchor="middle" x="1721.3" y="-600.6" font-family="Times,serif" font-size="14.00">TensorType(float64, vector)</text>
</g>
<!-- Elemwise{sub,no_inplace} -->
<g id="node9" class="node"><title>Elemwise{sub,no_inplace}</title>
<ellipse fill="#ffaabb" stroke="black" cx="1605" cy="-373.2" rx="116.662" ry="18"/>
<text text-anchor="middle" x="1605" y="-369" font-family="Times,serif" font-size="14.00">Elemwise{sub,no_inplace}</text>
</g>
<!-- y&#45;&gt;Elemwise{sub,no_inplace} -->
<g id="edge7" class="edge"><title>y&#45;&gt;Elemwise{sub,no_inplace}</title>
<path fill="none" stroke="black" d="M1530.06,-640.337C1519.18,-610.214 1501.19,-547.002 1519.9,-498 1523.73,-487.974 1529.47,-488.519 1536,-480 1556.07,-453.802 1576.39,-421.841 1589.73,-399.948"/>
<polygon fill="black" stroke="black" points="1592.82,-401.596 1595,-391.227 1586.83,-397.977 1592.82,-401.596"/>
<text text-anchor="middle" x="1605.55" y="-502.2" font-family="Times,serif" font-size="14.00">1 TensorType(float64, vector)</text>
</g>
<!-- Elemwise{Composite{((i0 * i1 * i2 * i3) + ((scalar_sigmoid((&#45;i4)) *... -->
<g id="node27" class="node"><title>Elemwise{Composite{((i0 * i1 * i2 * i3) + ((scalar_sigmoid((&#45;i4)) *...</title>
<ellipse fill="#ffaabb" stroke="black" cx="1749" cy="-195.6" rx="282.268" ry="18"/>
<text text-anchor="middle" x="1749" y="-191.4" font-family="Times,serif" font-size="14.00">Elemwise{Composite{((i0 * i1 * i2 * i3) + ((scalar_sigmoid((&#45;i4)) *...</text>
</g>
<!-- y&#45;&gt;Elemwise{Composite{((i0 * i1 * i2 * i3) + ((scalar_sigmoid((&#45;i4)) *... -->
<g id="edge32" class="edge"><title>y&#45;&gt;Elemwise{Composite{((i0 * i1 * i2 * i3) + ((scalar_sigmoid((&#45;i4)) *...</title>
<path fill="none" stroke="black" d="M1564.27,-657.283C1613.46,-655.687 1719.84,-649.19 1805,-622.8 1906.01,-591.499 1961.75,-604.96 2017,-514.8 2020.9,-508.434 2020.34,-504.678 2017,-498 2011.04,-486.074 2002.11,-489.739 1993,-480 1973.45,-459.092 1968.62,-452.541 1957.9,-426 1930.85,-359.006 1973.22,-321.931 1927,-266.4 1906.78,-242.113 1876.99,-226.237 1847.53,-215.875"/>
<polygon fill="black" stroke="black" points="1848.59,-212.537 1838,-212.7 1846.38,-219.179 1848.59,-212.537"/>
<text text-anchor="middle" x="2042.55" y="-413.4" font-family="Times,serif" font-size="14.00">3 TensorType(float64, vector)</text>
</g>
<!-- Elemwise{Composite{((i0 * scalar_softplus(i1)) &#45; (i2 * i3 * scalar_... -->
<g id="node29" class="node"><title>Elemwise{Composite{((i0 * scalar_softplus(i1)) &#45; (i2 * i3 * scalar_...</title>
<ellipse fill="#ffaabb" stroke="black" cx="845" cy="-284.4" rx="279.18" ry="18"/>
<text text-anchor="middle" x="845" y="-280.2" font-family="Times,serif" font-size="14.00">Elemwise{Composite{((i0 * scalar_softplus(i1)) &#45; (i2 * i3 * scalar_...</text>
</g>
<!-- y&#45;&gt;Elemwise{Composite{((i0 * scalar_softplus(i1)) &#45; (i2 * i3 * scalar_... -->
<g id="edge36" class="edge"><title>y&#45;&gt;Elemwise{Composite{((i0 * scalar_softplus(i1)) &#45; (i2 * i3 * scalar_...</title>
<path fill="none" stroke="black" d="M1516.46,-640.678C1496.81,-624.967 1465.83,-601.907 1436,-586.8 1303.33,-519.611 1223.42,-585.784 1118.9,-480 1095.66,-456.474 1112.86,-437.653 1096,-409.2 1079.17,-380.798 1074.09,-370.814 1045,-355.2 1003.67,-333.013 985.331,-352.538 941,-337.2 919.663,-329.818 897.379,-318.077 879.658,-307.639"/>
<polygon fill="black" stroke="black" points="881.209,-304.487 870.836,-302.329 877.599,-310.484 881.209,-304.487"/>
<text text-anchor="middle" x="1203.55" y="-457.8" font-family="Times,serif" font-size="14.00">0 TensorType(float64, vector)</text>
</g>
<!-- Elemwise{sub,no_inplace}&#45;&gt;Elemwise{Composite{((i0 * i1 * i2 * i3) + ((scalar_sigmoid((&#45;i4)) *... -->
<g id="edge34" class="edge"><title>Elemwise{sub,no_inplace}&#45;&gt;Elemwise{Composite{((i0 * i1 * i2 * i3) + ((scalar_sigmoid((&#45;i4)) *...</title>
<path fill="none" stroke="black" d="M1692.78,-361.224C1706.53,-355.907 1719.36,-348.23 1729,-337.2 1756.29,-305.986 1756.36,-255.107 1753.19,-223.87"/>
<polygon fill="black" stroke="black" points="1756.64,-223.218 1751.97,-213.705 1749.69,-224.05 1756.64,-223.218"/>
<text text-anchor="middle" x="1838.55" y="-280.2" font-family="Times,serif" font-size="14.00">5 TensorType(float64, vector)</text>
</g>
<!-- Elemwise{sub,no_inplace}&#45;&gt;Elemwise{Composite{((i0 * scalar_softplus(i1)) &#45; (i2 * i3 * scalar_... -->
<g id="edge39" class="edge"><title>Elemwise{sub,no_inplace}&#45;&gt;Elemwise{Composite{((i0 * scalar_softplus(i1)) &#45; (i2 * i3 * scalar_...</title>
<path fill="none" stroke="black" d="M1523.43,-360.303C1508.66,-358.403 1493.39,-356.605 1479,-355.2 1347.34,-342.347 1311.2,-365.163 1181.9,-337.2 1161.48,-332.784 1158.28,-325.41 1138,-320.4 1102.16,-311.547 1063.28,-304.904 1025.92,-299.93"/>
<polygon fill="black" stroke="black" points="1026.3,-296.451 1015.94,-298.636 1025.4,-303.393 1026.3,-296.451"/>
<text text-anchor="middle" x="1266.55" y="-324.6" font-family="Times,serif" font-size="14.00">3 TensorType(float64, vector)</text>
</g>
<!-- val=[ 1.] TensorType(float64, (True,)) -->
<g id="node10" class="node"><title>val=[ 1.] TensorType(float64, (True,))</title>
<polygon fill="green" stroke="black" points="1527.19,-480 1296.81,-480 1296.81,-444 1527.19,-444 1527.19,-480"/>
<text text-anchor="middle" x="1412" y="-457.8" font-family="Times,serif" font-size="14.00">val=[ 1.] TensorType(float64, (True,))</text>
</g>
<!-- val=[ 1.] TensorType(float64, (True,))&#45;&gt;Elemwise{sub,no_inplace} -->
<g id="edge6" class="edge"><title>val=[ 1.] TensorType(float64, (True,))&#45;&gt;Elemwise{sub,no_inplace}</title>
<path fill="none" stroke="black" d="M1396.32,-443.687C1388.44,-432.859 1382.19,-419.132 1390.63,-409.2 1394.77,-404.338 1454.47,-394.831 1509.82,-386.951"/>
<polygon fill="black" stroke="black" points="1510.32,-390.416 1519.73,-385.551 1509.34,-383.485 1510.32,-390.416"/>
<text text-anchor="middle" x="1477.68" y="-413.4" font-family="Times,serif" font-size="14.00">0 TensorType(float64, (True,))</text>
</g>
<!-- Alloc&#45;&gt;CGemv{inplace} -->
<g id="edge13" class="edge"><title>Alloc&#45;&gt;CGemv{inplace}</title>
<path fill="none" stroke="red" d="M828.402,-647.698C821.809,-645.273 814.687,-642.808 808,-640.8 774.299,-630.682 752.773,-650.365 730.902,-622.8 720.958,-610.266 722.65,-600.508 730.902,-586.8 734.547,-580.746 739.629,-575.684 745.373,-571.466"/>
<polygon fill="red" stroke="red" points="747.61,-574.192 754.172,-565.873 743.855,-568.284 747.61,-574.192"/>
<text text-anchor="middle" x="815.549" y="-600.6" font-family="Times,serif" font-size="14.00">0 TensorType(float64, vector)</text>
</g>
<!-- val=0.0 TensorType(float64, scalar) -->
<g id="node12" class="node"><title>val=0.0 TensorType(float64, scalar)</title>
<polygon fill="green" stroke="black" points="776.257,-784.8 557.743,-784.8 557.743,-748.8 776.257,-748.8 776.257,-784.8"/>
<text text-anchor="middle" x="667" y="-762.6" font-family="Times,serif" font-size="14.00">val=0.0 TensorType(float64, scalar)</text>
</g>
<!-- val=0.0 TensorType(float64, scalar)&#45;&gt;Alloc -->
<g id="edge8" class="edge"><title>val=0.0 TensorType(float64, scalar)&#45;&gt;Alloc</title>
<path fill="none" stroke="black" d="M676.435,-748.642C686.388,-732.213 703.618,-708.028 725.243,-694.8 757.353,-675.159 771.868,-687.35 808,-676.8 811.56,-675.76 815.241,-674.582 818.898,-673.343"/>
<polygon fill="black" stroke="black" points="820.164,-676.608 828.423,-669.973 817.829,-670.009 820.164,-676.608"/>
<text text-anchor="middle" x="809.378" y="-708.6" font-family="Times,serif" font-size="14.00">0 TensorType(float64, scalar)</text>
</g>
<!-- val=0.0 TensorType(float64, scalar)&#45;&gt;CGemv{inplace} -->
<g id="edge17" class="edge"><title>val=0.0 TensorType(float64, scalar)&#45;&gt;CGemv{inplace}</title>
<path fill="none" stroke="black" d="M657.832,-748.613C645.802,-723.532 628.218,-676.057 646.243,-640.8 664.707,-604.685 704.89,-582.037 739.129,-568.63"/>
<polygon fill="black" stroke="black" points="740.463,-571.869 748.606,-565.091 738.013,-565.311 740.463,-571.869"/>
<text text-anchor="middle" x="730.378" y="-654.6" font-family="Times,serif" font-size="14.00">4 TensorType(float64, scalar)</text>
</g>
<!-- Assert -->
<g id="node23" class="node"><title>Assert</title>
<ellipse fill="none" stroke="black" cx="1565" cy="-284.4" rx="35.9096" ry="18"/>
<text text-anchor="middle" x="1565" y="-280.2" font-family="Times,serif" font-size="14.00">Assert</text>
</g>
<!-- Elemwise{eq,no_inplace}&#45;&gt;Assert -->
<g id="edge25" class="edge"><title>Elemwise{eq,no_inplace}&#45;&gt;Assert</title>
<path fill="none" stroke="black" d="M1707.43,-444.095C1726.99,-415.264 1759.74,-356.236 1729,-320.4 1713.78,-302.653 1653.09,-293.397 1609.99,-288.964"/>
<polygon fill="black" stroke="black" points="1610.29,-285.477 1600,-287.989 1609.61,-292.444 1610.29,-285.477"/>
<text text-anchor="middle" x="1816.44" y="-369" font-family="Times,serif" font-size="14.00">1 TensorType(int8, scalar)</text>
</g>
<!-- Elemwise{Cast{float64}} -->
<g id="node18" class="node"><title>Elemwise{Cast{float64}}</title>
<ellipse fill="#ffaabb" stroke="black" cx="2143" cy="-373.2" rx="112.348" ry="18"/>
<text text-anchor="middle" x="2143" y="-369" font-family="Times,serif" font-size="14.00">Elemwise{Cast{float64}}</text>
</g>
<!-- InplaceDimShuffle{x} id=7&#45;&gt;Elemwise{Cast{float64}} -->
<g id="edge18" class="edge"><title>InplaceDimShuffle{x} id=7&#45;&gt;Elemwise{Cast{float64}}</title>
<path fill="none" stroke="black" d="M2125.35,-443.851C2128.42,-431.725 2132.6,-415.219 2136.13,-401.319"/>
<polygon fill="black" stroke="black" points="2139.6,-401.867 2138.66,-391.313 2132.81,-400.147 2139.6,-401.867"/>
<text text-anchor="middle" x="2210" y="-413.4" font-family="Times,serif" font-size="14.00">TensorType(int64, (True,))</text>
</g>
<!-- CGemv{inplace}&#45;&gt;Elemwise{Composite{((&#45;i0) &#45; i1)}}[(0, 0)] -->
<g id="edge19" class="edge"><title>CGemv{inplace}&#45;&gt;Elemwise{Composite{((&#45;i0) &#45; i1)}}[(0, 0)]</title>
<path fill="none" stroke="red" d="M798.778,-532.651C800.035,-520.525 801.747,-504.019 803.188,-490.119"/>
<polygon fill="red" stroke="red" points="806.675,-490.421 804.226,-480.113 799.713,-489.699 806.675,-490.421"/>
<text text-anchor="middle" x="887.549" y="-502.2" font-family="Times,serif" font-size="14.00">0 TensorType(float64, vector)</text>
</g>
<!-- val=1.0 TensorType(float64, scalar) -->
<g id="node16" class="node"><title>val=1.0 TensorType(float64, scalar)</title>
<polygon fill="green" stroke="black" points="1160.26,-676.8 941.743,-676.8 941.743,-640.8 1160.26,-640.8 1160.26,-676.8"/>
<text text-anchor="middle" x="1051" y="-654.6" font-family="Times,serif" font-size="14.00">val=1.0 TensorType(float64, scalar)</text>
</g>
<!-- val=1.0 TensorType(float64, scalar)&#45;&gt;CGemv{inplace} -->
<g id="edge14" class="edge"><title>val=1.0 TensorType(float64, scalar)&#45;&gt;CGemv{inplace}</title>
<path fill="none" stroke="black" d="M1026.09,-640.798C1001.93,-624.951 963.77,-601.599 928,-586.8 907.438,-578.292 884.199,-571.296 863.064,-565.854"/>
<polygon fill="black" stroke="black" points="863.751,-562.418 853.2,-563.385 862.051,-569.208 863.751,-562.418"/>
<text text-anchor="middle" x="1080.38" y="-600.6" font-family="Times,serif" font-size="14.00">1 TensorType(float64, scalar)</text>
</g>
<!-- w -->
<g id="node17" class="node"><title>w</title>
<polygon fill="green" stroke="black" points="460,-676.8 406,-676.8 406,-640.8 460,-640.8 460,-676.8"/>
<text text-anchor="middle" x="433" y="-654.6" font-family="Times,serif" font-size="14.00">w</text>
</g>
<!-- w&#45;&gt;CGemv{inplace} -->
<g id="edge16" class="edge"><title>w&#45;&gt;CGemv{inplace}</title>
<path fill="none" stroke="black" d="M432.876,-640.798C433.76,-624.245 437.933,-599.748 453.902,-586.8 473.822,-570.649 658.521,-571.709 684,-568.8 697.272,-567.284 711.381,-565.39 724.967,-563.421"/>
<polygon fill="black" stroke="black" points="725.85,-566.828 735.232,-561.906 724.828,-559.904 725.85,-566.828"/>
<text text-anchor="middle" x="538.549" y="-600.6" font-family="Times,serif" font-size="14.00">3 TensorType(float64, vector)</text>
</g>
<!-- w&#45;&gt;CGemv{inplace} id=19 -->
<g id="edge43" class="edge"><title>w&#45;&gt;CGemv{inplace} id=19</title>
<path fill="none" stroke="red" d="M428.533,-640.677C423.497,-619.832 416,-583.485 416,-551.8 416,-551.8 416,-551.8 416,-416.6 416,-370.791 417.532,-349.39 453,-320.4 476.126,-301.498 688.327,-190.738 731,-177.6 849.165,-141.221 883.709,-152.051 1007,-142.8 1263.36,-123.563 2038.25,-112.61 2330.14,-109.075"/>
<polygon fill="red" stroke="red" points="2330.36,-112.573 2340.32,-108.952 2330.28,-105.573 2330.36,-112.573"/>
<text text-anchor="middle" x="508.549" y="-369" font-family="Times,serif" font-size="14.00">0 TensorType(float64, vector)</text>
</g>
<!-- Elemwise{inv,no_inplace} -->
<g id="node20" class="node"><title>Elemwise{inv,no_inplace}</title>
<ellipse fill="#ffaabb" stroke="black" cx="2090" cy="-284.4" rx="115.518" ry="18"/>
<text text-anchor="middle" x="2090" y="-280.2" font-family="Times,serif" font-size="14.00">Elemwise{inv,no_inplace}</text>
</g>
<!-- Elemwise{Cast{float64}}&#45;&gt;Elemwise{inv,no_inplace} -->
<g id="edge21" class="edge"><title>Elemwise{Cast{float64}}&#45;&gt;Elemwise{inv,no_inplace}</title>
<path fill="none" stroke="black" d="M2088.34,-357.415C2079.14,-352.475 2070.77,-345.911 2065.13,-337.2 2059.77,-328.908 2062.27,-319.282 2067.36,-310.595"/>
<polygon fill="black" stroke="black" points="2070.29,-312.515 2073.12,-302.304 2064.54,-308.524 2070.29,-312.515"/>
<text text-anchor="middle" x="2147.43" y="-324.6" font-family="Times,serif" font-size="14.00">TensorType(float64, (True,))</text>
</g>
<!-- Elemwise{Cast{float64}}&#45;&gt;Elemwise{Composite{((i0 * i1 * i2 * i3) + ((scalar_sigmoid((&#45;i4)) *... -->
<g id="edge35" class="edge"><title>Elemwise{Cast{float64}}&#45;&gt;Elemwise{Composite{((i0 * i1 * i2 * i3) + ((scalar_sigmoid((&#45;i4)) *...</title>
<path fill="none" stroke="black" d="M2203.42,-357.885C2213.13,-352.913 2221.96,-346.217 2228,-337.2 2256.2,-295.095 2230.19,-254.537 2185,-231.6 2154.87,-216.305 2092.99,-207.414 2025.09,-202.324"/>
<polygon fill="black" stroke="black" points="2025.25,-198.827 2015.03,-201.6 2024.75,-205.808 2025.25,-198.827"/>
<text text-anchor="middle" x="2326.68" y="-280.2" font-family="Times,serif" font-size="14.00">6 TensorType(float64, (True,))</text>
</g>
<!-- sigmoid -->
<g id="node21" class="node"><title>sigmoid</title>
<ellipse fill="#ffaabb" stroke="black" cx="1428" cy="-373.2" rx="42.3145" ry="18"/>
<text text-anchor="middle" x="1428" y="-369" font-family="Times,serif" font-size="14.00">sigmoid</text>
</g>
<!-- Elemwise{Composite{((&#45;i0) &#45; i1)}}[(0, 0)]&#45;&gt;sigmoid -->
<g id="edge22" class="edge"><title>Elemwise{Composite{((&#45;i0) &#45; i1)}}[(0, 0)]&#45;&gt;sigmoid</title>
<path fill="none" stroke="black" d="M913.049,-447.692C997.579,-437.197 1118.52,-422.211 1224.4,-409.2 1289.99,-401.14 1307.34,-404.849 1372,-391.2 1376.66,-390.216 1381.5,-389.021 1386.28,-387.727"/>
<polygon fill="black" stroke="black" points="1387.31,-391.073 1395.97,-384.965 1385.39,-384.341 1387.31,-391.073"/>
<text text-anchor="middle" x="1304.3" y="-413.4" font-family="Times,serif" font-size="14.00">TensorType(float64, vector)</text>
</g>
<!-- Elemwise{neg,no_inplace} -->
<g id="node22" class="node"><title>Elemwise{neg,no_inplace}</title>
<ellipse fill="#ffaabb" stroke="black" cx="720" cy="-373.2" rx="117.225" ry="18"/>
<text text-anchor="middle" x="720" y="-369" font-family="Times,serif" font-size="14.00">Elemwise{neg,no_inplace}</text>
</g>
<!-- Elemwise{Composite{((&#45;i0) &#45; i1)}}[(0, 0)]&#45;&gt;Elemwise{neg,no_inplace} -->
<g id="edge23" class="edge"><title>Elemwise{Composite{((&#45;i0) &#45; i1)}}[(0, 0)]&#45;&gt;Elemwise{neg,no_inplace}</title>
<path fill="none" stroke="black" d="M724.175,-445.945C714.888,-441.02 706.564,-434.534 700.402,-426 694.804,-418.247 696.514,-408.7 700.698,-399.923"/>
<polygon fill="black" stroke="black" points="703.786,-401.574 705.751,-391.163 697.722,-398.076 703.786,-401.574"/>
<text text-anchor="middle" x="780.299" y="-413.4" font-family="Times,serif" font-size="14.00">TensorType(float64, vector)</text>
</g>
<!-- Elemwise{Composite{((&#45;i0) &#45; i1)}}[(0, 0)]&#45;&gt;Elemwise{Composite{((i0 * i1 * i2 * i3) + ((scalar_sigmoid((&#45;i4)) *... -->
<g id="edge33" class="edge"><title>Elemwise{Composite{((&#45;i0) &#45; i1)}}[(0, 0)]&#45;&gt;Elemwise{Composite{((i0 * i1 * i2 * i3) + ((scalar_sigmoid((&#45;i4)) *...</title>
<path fill="none" stroke="black" d="M879.364,-445.616C937.373,-433.983 1020.54,-418.479 1094,-409.2 1121.08,-405.779 1316.73,-406.977 1339,-391.2 1367.02,-371.355 1346.04,-345.083 1369.9,-320.4 1433.6,-254.516 1468.79,-259.758 1556,-231.6 1577.98,-224.505 1601.85,-218.713 1625.08,-214.031"/>
<polygon fill="black" stroke="black" points="1625.84,-217.448 1634.99,-212.092 1624.5,-210.578 1625.84,-217.448"/>
<text text-anchor="middle" x="1454.55" y="-324.6" font-family="Times,serif" font-size="14.00">4 TensorType(float64, vector)</text>
</g>
<!-- Elemwise{Composite{((&#45;i0) &#45; i1)}}[(0, 0)]&#45;&gt;Elemwise{Composite{((i0 * scalar_softplus(i1)) &#45; (i2 * i3 * scalar_... -->
<g id="edge37" class="edge"><title>Elemwise{Composite{((&#45;i0) &#45; i1)}}[(0, 0)]&#45;&gt;Elemwise{Composite{((i0 * scalar_softplus(i1)) &#45; (i2 * i3 * scalar_...</title>
<path fill="none" stroke="red" d="M841.871,-444.368C848.745,-439.463 855.03,-433.38 859,-426 881.236,-384.669 867.875,-366.486 859,-320.4 858.473,-317.663 857.734,-314.867 856.867,-312.109"/>
<polygon fill="red" stroke="red" points="860.055,-310.635 853.326,-302.452 853.483,-313.045 860.055,-310.635"/>
<text text-anchor="middle" x="956.549" y="-369" font-family="Times,serif" font-size="14.00">1 TensorType(float64, vector)</text>
</g>
<!-- Elemwise{inv,no_inplace}&#45;&gt;Elemwise{Composite{((i0 * i1 * i2 * i3) + ((scalar_sigmoid((&#45;i4)) *... -->
<g id="edge31" class="edge"><title>Elemwise{inv,no_inplace}&#45;&gt;Elemwise{Composite{((i0 * i1 * i2 * i3) + ((scalar_sigmoid((&#45;i4)) *...</title>
<path fill="none" stroke="black" d="M2055.12,-267.121C2029.34,-255.681 1993.12,-240.829 1960,-231.6 1934.12,-224.387 1906.01,-218.455 1879,-213.656"/>
<polygon fill="black" stroke="black" points="1879.55,-210.201 1869.1,-211.939 1878.36,-217.098 1879.55,-210.201"/>
<text text-anchor="middle" x="2094.68" y="-235.8" font-family="Times,serif" font-size="14.00">2 TensorType(float64, (True,))</text>
</g>
<!-- sigmoid&#45;&gt;Assert -->
<g id="edge24" class="edge"><title>sigmoid&#45;&gt;Assert</title>
<path fill="none" stroke="blue" d="M1459.76,-361.355C1466.11,-359.258 1472.75,-357.118 1479,-355.2 1507.25,-346.526 1520.82,-356.721 1543,-337.2 1550.35,-330.728 1555.32,-321.38 1558.65,-312.401"/>
<polygon fill="blue" stroke="blue" points="1562.07,-313.183 1561.74,-302.593 1555.39,-311.078 1562.07,-313.183"/>
<text text-anchor="middle" x="1640.55" y="-324.6" font-family="Times,serif" font-size="14.00">0 TensorType(float64, vector)</text>
</g>
<!-- Elemwise{Composite{GT(scalar_sigmoid(i0), i1)}} -->
<g id="node24" class="node"><title>Elemwise{Composite{GT(scalar_sigmoid(i0), i1)}}</title>
<ellipse fill="#ffaabb" stroke="black" cx="242" cy="-284.4" rx="213.593" ry="18"/>
<text text-anchor="middle" x="242" y="-280.2" font-family="Times,serif" font-size="14.00">Elemwise{Composite{GT(scalar_sigmoid(i0), i1)}}</text>
</g>
<!-- Elemwise{neg,no_inplace}&#45;&gt;Elemwise{Composite{GT(scalar_sigmoid(i0), i1)}} -->
<g id="edge26" class="edge"><title>Elemwise{neg,no_inplace}&#45;&gt;Elemwise{Composite{GT(scalar_sigmoid(i0), i1)}}</title>
<path fill="none" stroke="black" d="M643.107,-359.518C604.329,-353.026 556.586,-344.889 513.902,-337.2 453.256,-326.275 385.142,-313.297 332.259,-303.065"/>
<polygon fill="black" stroke="black" points="332.713,-299.588 322.23,-301.122 331.381,-306.46 332.713,-299.588"/>
<text text-anchor="middle" x="598.549" y="-324.6" font-family="Times,serif" font-size="14.00">0 TensorType(float64, vector)</text>
</g>
<!-- Elemwise{neg,no_inplace}&#45;&gt;Elemwise{Composite{((i0 * scalar_softplus(i1)) &#45; (i2 * i3 * scalar_... -->
<g id="edge40" class="edge"><title>Elemwise{neg,no_inplace}&#45;&gt;Elemwise{Composite{((i0 * scalar_softplus(i1)) &#45; (i2 * i3 * scalar_...</title>
<path fill="none" stroke="black" d="M699.622,-355.061C689.599,-344.56 681.329,-331.123 689.902,-320.4 695.291,-313.66 707.299,-308.124 722.371,-303.607"/>
<polygon fill="black" stroke="black" points="723.408,-306.952 732.121,-300.924 721.55,-300.203 723.408,-306.952"/>
<text text-anchor="middle" x="774.549" y="-324.6" font-family="Times,serif" font-size="14.00">4 TensorType(float64, vector)</text>
</g>
<!-- Assert&#45;&gt;Elemwise{Composite{((i0 * i1 * i2 * i3) + ((scalar_sigmoid((&#45;i4)) *... -->
<g id="edge29" class="edge"><title>Assert&#45;&gt;Elemwise{Composite{((i0 * i1 * i2 * i3) + ((scalar_sigmoid((&#45;i4)) *...</title>
<path fill="none" stroke="red" d="M1560.22,-266.094C1558.26,-254.993 1558.03,-240.958 1565.9,-231.6 1572.04,-224.304 1585.06,-218.512 1601.46,-213.919"/>
<polygon fill="red" stroke="red" points="1602.67,-217.224 1611.48,-211.351 1600.93,-210.443 1602.67,-217.224"/>
<text text-anchor="middle" x="1650.55" y="-235.8" font-family="Times,serif" font-size="14.00">0 TensorType(float64, vector)</text>
</g>
<!-- TensorType(int8, vector) -->
<g id="node26" class="node"><title>TensorType(int8, vector)</title>
<polygon fill="blue" stroke="black" points="320.223,-213.6 163.777,-213.6 163.777,-177.6 320.223,-177.6 320.223,-213.6"/>
<text text-anchor="middle" x="242" y="-191.4" font-family="Times,serif" font-size="14.00">TensorType(int8, vector)</text>
</g>
<!-- Elemwise{Composite{GT(scalar_sigmoid(i0), i1)}}&#45;&gt;TensorType(int8, vector) -->
<g id="edge28" class="edge"><title>Elemwise{Composite{GT(scalar_sigmoid(i0), i1)}}&#45;&gt;TensorType(int8, vector)</title>
<path fill="none" stroke="black" d="M242,-266.251C242,-254.125 242,-237.619 242,-223.719"/>
<polygon fill="black" stroke="black" points="245.5,-223.713 242,-213.713 238.5,-223.713 245.5,-223.713"/>
<text text-anchor="middle" x="312.361" y="-235.8" font-family="Times,serif" font-size="14.00">TensorType(int8, vector)</text>
</g>
<!-- val=[ 0.5] TensorType(float32, (True,)) -->
<g id="node25" class="node"><title>val=[ 0.5] TensorType(float32, (True,))</title>
<polygon fill="green" stroke="black" points="360.687,-391.2 123.313,-391.2 123.313,-355.2 360.687,-355.2 360.687,-391.2"/>
<text text-anchor="middle" x="242" y="-369" font-family="Times,serif" font-size="14.00">val=[ 0.5] TensorType(float32, (True,))</text>
</g>
<!-- val=[ 0.5] TensorType(float32, (True,))&#45;&gt;Elemwise{Composite{GT(scalar_sigmoid(i0), i1)}} -->
<g id="edge27" class="edge"><title>val=[ 0.5] TensorType(float32, (True,))&#45;&gt;Elemwise{Composite{GT(scalar_sigmoid(i0), i1)}}</title>
<path fill="none" stroke="black" d="M242,-355.051C242,-342.925 242,-326.419 242,-312.519"/>
<polygon fill="black" stroke="black" points="245.5,-312.513 242,-302.513 238.5,-312.513 245.5,-312.513"/>
<text text-anchor="middle" x="328.683" y="-324.6" font-family="Times,serif" font-size="14.00">1 TensorType(float32, (True,))</text>
</g>
<!-- Sum{acc_dtype=float64} -->
<g id="node31" class="node"><title>Sum{acc_dtype=float64}</title>
<ellipse fill="none" stroke="black" cx="717" cy="-106.8" rx="109.917" ry="18"/>
<text text-anchor="middle" x="717" y="-102.6" font-family="Times,serif" font-size="14.00">Sum{acc_dtype=float64}</text>
</g>
<!-- Elemwise{Composite{((i0 * i1 * i2 * i3) + ((scalar_sigmoid((&#45;i4)) *...&#45;&gt;Sum{acc_dtype=float64} -->
<g id="edge42" class="edge"><title>Elemwise{Composite{((i0 * i1 * i2 * i3) + ((scalar_sigmoid((&#45;i4)) *...&#45;&gt;Sum{acc_dtype=float64}</title>
<path fill="none" stroke="black" d="M1547.38,-182.995C1362.14,-171.429 1080.15,-151.543 836,-124.8 825.781,-123.681 815.089,-122.363 804.484,-120.964"/>
<polygon fill="black" stroke="black" points="804.739,-117.467 794.362,-119.602 803.806,-124.404 804.739,-117.467"/>
<text text-anchor="middle" x="1291.3" y="-147" font-family="Times,serif" font-size="14.00">TensorType(float64, vector)</text>
</g>
<!-- Elemwise{Composite{((i0 * i1 * i2 * i3) + ((scalar_sigmoid((&#45;i4)) *...&#45;&gt;CGemv{inplace} id=19 -->
<g id="edge46" class="edge"><title>Elemwise{Composite{((i0 * i1 * i2 * i3) + ((scalar_sigmoid((&#45;i4)) *...&#45;&gt;CGemv{inplace} id=19</title>
<path fill="none" stroke="black" d="M1871.08,-179.332C2008.4,-162.156 2228.3,-134.653 2351.59,-119.233"/>
<polygon fill="black" stroke="black" points="2352.27,-122.676 2361.75,-117.962 2351.4,-115.73 2352.27,-122.676"/>
<text text-anchor="middle" x="2243.55" y="-147" font-family="Times,serif" font-size="14.00">3 TensorType(float64, vector)</text>
</g>
<!-- val=[&#45;1.] TensorType(float64, (True,)) -->
<g id="node28" class="node"><title>val=[&#45;1.] TensorType(float64, (True,))</title>
<polygon fill="green" stroke="black" points="1329.85,-391.2 1098.15,-391.2 1098.15,-355.2 1329.85,-355.2 1329.85,-391.2"/>
<text text-anchor="middle" x="1214" y="-369" font-family="Times,serif" font-size="14.00">val=[&#45;1.] TensorType(float64, (True,))</text>
</g>
<!-- val=[&#45;1.] TensorType(float64, (True,))&#45;&gt;Elemwise{Composite{((i0 * i1 * i2 * i3) + ((scalar_sigmoid((&#45;i4)) *... -->
<g id="edge30" class="edge"><title>val=[&#45;1.] TensorType(float64, (True,))&#45;&gt;Elemwise{Composite{((i0 * i1 * i2 * i3) + ((scalar_sigmoid((&#45;i4)) *...</title>
<path fill="none" stroke="black" d="M1178.26,-355.061C1171.73,-350.232 1165.78,-344.308 1162,-337.2 1149.31,-313.37 1175.63,-274.46 1185.63,-266.4 1231.59,-229.377 1357.84,-211.717 1479.2,-203.408"/>
<polygon fill="black" stroke="black" points="1479.67,-206.884 1489.42,-202.729 1479.21,-199.899 1479.67,-206.884"/>
<text text-anchor="middle" x="1272.68" y="-280.2" font-family="Times,serif" font-size="14.00">1 TensorType(float64, (True,))</text>
</g>
<!-- val=[&#45;1.] TensorType(float64, (True,))&#45;&gt;Elemwise{Composite{((i0 * scalar_softplus(i1)) &#45; (i2 * i3 * scalar_... -->
<g id="edge38" class="edge"><title>val=[&#45;1.] TensorType(float64, (True,))&#45;&gt;Elemwise{Composite{((i0 * scalar_softplus(i1)) &#45; (i2 * i3 * scalar_...</title>
<path fill="none" stroke="black" d="M1097.83,-356.79C1032.82,-348.059 964.064,-338.601 960.634,-337.2 949.037,-332.461 948.999,-326.398 938,-320.4 928.16,-315.034 917.325,-310.138 906.633,-305.818"/>
<polygon fill="black" stroke="black" points="907.891,-302.552 897.303,-302.173 905.344,-309.072 907.891,-302.552"/>
<text text-anchor="middle" x="1047.68" y="-324.6" font-family="Times,serif" font-size="14.00">2 TensorType(float64, (True,))</text>
</g>
<!-- TensorType(float64, vector) id=26 -->
<g id="node30" class="node"><title>TensorType(float64, vector) id=26</title>
<polygon fill="blue" stroke="black" points="950.383,-213.6 739.617,-213.6 739.617,-177.6 950.383,-177.6 950.383,-213.6"/>
<text text-anchor="middle" x="845" y="-191.4" font-family="Times,serif" font-size="14.00">TensorType(float64, vector) id=26</text>
</g>
<!-- Elemwise{Composite{((i0 * scalar_softplus(i1)) &#45; (i2 * i3 * scalar_...&#45;&gt;TensorType(float64, vector) id=26 -->
<g id="edge41" class="edge"><title>Elemwise{Composite{((i0 * scalar_softplus(i1)) &#45; (i2 * i3 * scalar_...&#45;&gt;TensorType(float64, vector) id=26</title>
<path fill="none" stroke="black" d="M845,-266.251C845,-254.125 845,-237.619 845,-223.719"/>
<polygon fill="black" stroke="black" points="848.5,-223.713 845,-213.713 841.5,-223.713 848.5,-223.713"/>
<text text-anchor="middle" x="924.299" y="-235.8" font-family="Times,serif" font-size="14.00">TensorType(float64, vector)</text>
</g>
<!-- Sum{acc_dtype=float64}&#45;&gt;Elemwise{Composite{(i0 &#45; (i1 * i2))}}[(0, 0)] -->
<g id="edge50" class="edge"><title>Sum{acc_dtype=float64}&#45;&gt;Elemwise{Composite{(i0 &#45; (i1 * i2))}}[(0, 0)]</title>
<path fill="none" stroke="black" d="M717,-88.6511C717,-76.5249 717,-60.019 717,-46.119"/>
<polygon fill="black" stroke="black" points="720.5,-46.1132 717,-36.1133 713.5,-46.1133 720.5,-46.1132"/>
<text text-anchor="middle" x="800.378" y="-58.2" font-family="Times,serif" font-size="14.00">2 TensorType(float64, scalar)</text>
</g>
<!-- val=&#45;0.1 TensorType(float64, scalar) -->
<g id="node33" class="node"><title>val=&#45;0.1 TensorType(float64, scalar)</title>
<polygon fill="green" stroke="black" points="2693.42,-213.6 2470.58,-213.6 2470.58,-177.6 2693.42,-177.6 2693.42,-213.6"/>
<text text-anchor="middle" x="2582" y="-191.4" font-family="Times,serif" font-size="14.00">val=&#45;0.1 TensorType(float64, scalar)</text>
</g>
<!-- val=&#45;0.1 TensorType(float64, scalar)&#45;&gt;CGemv{inplace} id=19 -->
<g id="edge44" class="edge"><title>val=&#45;0.1 TensorType(float64, scalar)&#45;&gt;CGemv{inplace} id=19</title>
<path fill="none" stroke="black" d="M2554.54,-177.451C2532.65,-163.782 2501.85,-144.549 2478.16,-129.756"/>
<polygon fill="black" stroke="black" points="2479.8,-126.652 2469.46,-124.324 2476.09,-132.59 2479.8,-126.652"/>
<text text-anchor="middle" x="2608.38" y="-147" font-family="Times,serif" font-size="14.00">1 TensorType(float64, scalar)</text>
</g>
<!-- val=0.998 TensorType(float64, scalar) -->
<g id="node34" class="node"><title>val=0.998 TensorType(float64, scalar)</title>
<polygon fill="green" stroke="black" points="2944.26,-213.6 2711.74,-213.6 2711.74,-177.6 2944.26,-177.6 2944.26,-213.6"/>
<text text-anchor="middle" x="2828" y="-191.4" font-family="Times,serif" font-size="14.00">val=0.998 TensorType(float64, scalar)</text>
</g>
<!-- val=0.998 TensorType(float64, scalar)&#45;&gt;CGemv{inplace} id=19 -->
<g id="edge47" class="edge"><title>val=0.998 TensorType(float64, scalar)&#45;&gt;CGemv{inplace} id=19</title>
<path fill="none" stroke="black" d="M2791.51,-177.578C2765.44,-166.087 2729.23,-151.486 2696,-142.8 2646.94,-129.974 2591.22,-121.623 2544.59,-116.308"/>
<polygon fill="black" stroke="black" points="2544.8,-112.81 2534.48,-115.186 2544.03,-119.767 2544.8,-112.81"/>
<text text-anchor="middle" x="2827.38" y="-147" font-family="Times,serif" font-size="14.00">4 TensorType(float64, scalar)</text>
</g>
<!-- val=0.1 TensorType(float64, scalar) -->
<g id="node36" class="node"><title>val=0.1 TensorType(float64, scalar)</title>
<polygon fill="green" stroke="black" points="1063.26,-124.8 844.743,-124.8 844.743,-88.8 1063.26,-88.8 1063.26,-124.8"/>
<text text-anchor="middle" x="954" y="-102.6" font-family="Times,serif" font-size="14.00">val=0.1 TensorType(float64, scalar)</text>
</g>
<!-- val=0.1 TensorType(float64, scalar)&#45;&gt;Elemwise{Composite{(i0 &#45; (i1 * i2))}}[(0, 0)] -->
<g id="edge49" class="edge"><title>val=0.1 TensorType(float64, scalar)&#45;&gt;Elemwise{Composite{(i0 &#45; (i1 * i2))}}[(0, 0)]</title>
<path fill="none" stroke="black" d="M936.756,-88.5616C924.251,-77.0479 906.373,-62.5076 888,-54 871.023,-46.1387 852.289,-40.0336 833.633,-35.2947"/>
<polygon fill="black" stroke="black" points="834.437,-31.8882 823.894,-32.9391 832.791,-38.692 834.437,-31.8882"/>
<text text-anchor="middle" x="999.378" y="-58.2" font-family="Times,serif" font-size="14.00">1 TensorType(float64, scalar)</text>
</g>
</g>
</svg>
