<?xml version="1.0" encoding="UTF-8" standalone="no"?>
<!DOCTYPE svg PUBLIC "-//W3C//DTD SVG 1.1//EN"
 "http://www.w3.org/Graphics/SVG/1.1/DTD/svg11.dtd">
<!-- Generated by graphviz version 2.38.0 (20140413.2041)
 -->
<!-- Title: G Pages: 1 -->
<svg width="1158pt" height="488pt"
 viewBox="0.00 0.00 1157.98 488.00" xmlns="http://www.w3.org/2000/svg" xmlns:xlink="http://www.w3.org/1999/xlink">
<g id="graph0" class="graph" transform="scale(1 1) rotate(0) translate(4 484)">
<title>G</title>
<polygon fill="white" stroke="none" points="-4,4 -4,-484 1153.98,-484 1153.98,4 -4,4"/>
<!-- InplaceDimShuffle{x} -->
<g id="node1" class="node"><title>InplaceDimShuffle{x}</title>
<ellipse fill="none" stroke="black" cx="983.721" cy="-195.6" rx="99.2835" ry="18"/>
<text text-anchor="middle" x="983.721" y="-191.4" font-family="Times,serif" font-size="14.00">InplaceDimShuffle{x}</text>
</g>
<!-- Elemwise{Composite{GT(scalar_sigmoid((&#45;((&#45;i0) &#45; i1))), i2)}} -->
<g id="node10" class="node"><title>Elemwise{Composite{GT(scalar_sigmoid((&#45;((&#45;i0) &#45; i1))), i2)}}</title>
<ellipse fill="#ffaabb" stroke="black" cx="716.721" cy="-106.8" rx="254.641" ry="18"/>
<text text-anchor="middle" x="716.721" y="-102.6" font-family="Times,serif" font-size="14.00">Elemwise{Composite{GT(scalar_sigmoid((&#45;((&#45;i0) &#45; i1))), i2)}}</text>
</g>
<!-- InplaceDimShuffle{x}&#45;&gt;Elemwise{Composite{GT(scalar_sigmoid((&#45;((&#45;i0) &#45; i1))), i2)}} -->
<g id="edge11" class="edge"><title>InplaceDimShuffle{x}&#45;&gt;Elemwise{Composite{GT(scalar_sigmoid((&#45;((&#45;i0) &#45; i1))), i2)}}</title>
<path fill="none" stroke="black" d="M959.963,-178.035C942.408,-166.532 917.523,-151.725 893.721,-142.8 874.817,-135.712 854.212,-129.974 833.961,-125.356"/>
<polygon fill="black" stroke="black" points="834.576,-121.908 824.057,-123.178 833.072,-128.744 834.576,-121.908"/>
<text text-anchor="middle" x="1014.4" y="-147" font-family="Times,serif" font-size="14.00">1 TensorType(float64, (True,))</text>
</g>
<!-- b -->
<g id="node2" class="node"><title>b</title>
<polygon fill="green" stroke="black" points="1026.72,-302.4 972.721,-302.4 972.721,-266.4 1026.72,-266.4 1026.72,-302.4"/>
<text text-anchor="middle" x="999.721" y="-280.2" font-family="Times,serif" font-size="14.00">b</text>
</g>
<!-- b&#45;&gt;InplaceDimShuffle{x} -->
<g id="edge1" class="edge"><title>b&#45;&gt;InplaceDimShuffle{x}</title>
<path fill="none" stroke="blue" d="M996.56,-266.251C994.325,-254.125 991.282,-237.619 988.72,-223.719"/>
<polygon fill="blue" stroke="blue" points="992.131,-222.913 986.876,-213.713 985.247,-224.182 992.131,-222.913"/>
<text text-anchor="middle" x="1071.85" y="-235.8" font-family="Times,serif" font-size="14.00">TensorType(float64, scalar)</text>
</g>
<!-- Shape_i{0} -->
<g id="node3" class="node"><title>Shape_i{0}</title>
<ellipse fill="cyan" stroke="black" cx="549.721" cy="-373.2" rx="56.4901" ry="18"/>
<text text-anchor="middle" x="549.721" y="-369" font-family="Times,serif" font-size="14.00">Shape_i{0}</text>
</g>
<!-- Alloc -->
<g id="node5" class="node"><title>Alloc</title>
<ellipse fill="#ffaa22" stroke="black" cx="692.721" cy="-284.4" rx="32.4808" ry="18"/>
<text text-anchor="middle" x="692.721" y="-280.2" font-family="Times,serif" font-size="14.00">Alloc</text>
</g>
<!-- Shape_i{0}&#45;&gt;Alloc -->
<g id="edge4" class="edge"><title>Shape_i{0}&#45;&gt;Alloc</title>
<path fill="none" stroke="black" d="M574.958,-356.882C599.487,-341.992 636.748,-319.375 662.768,-303.581"/>
<polygon fill="black" stroke="black" points="664.731,-306.484 671.464,-298.303 661.099,-300.5 664.731,-306.484"/>
<text text-anchor="middle" x="712.662" y="-324.6" font-family="Times,serif" font-size="14.00">1 TensorType(int64, scalar)</text>
</g>
<!-- x -->
<g id="node4" class="node"><title>x</title>
<polygon fill="green" stroke="black" points="158.721,-480 104.721,-480 104.721,-444 158.721,-444 158.721,-480"/>
<text text-anchor="middle" x="131.721" y="-457.8" font-family="Times,serif" font-size="14.00">x</text>
</g>
<!-- x&#45;&gt;Shape_i{0} -->
<g id="edge2" class="edge"><title>x&#45;&gt;Shape_i{0}</title>
<path fill="none" stroke="black" d="M158.825,-455.372C226.308,-441.358 402.943,-404.679 493.866,-385.799"/>
<polygon fill="black" stroke="black" points="494.64,-389.213 503.72,-383.753 493.217,-382.359 494.64,-389.213"/>
<text text-anchor="middle" x="458.803" y="-413.4" font-family="Times,serif" font-size="14.00">TensorType(float64, matrix)</text>
</g>
<!-- CGemv{inplace} -->
<g id="node7" class="node"><title>CGemv{inplace}</title>
<ellipse fill="none" stroke="black" cx="440.721" cy="-195.6" rx="78.4578" ry="18"/>
<text text-anchor="middle" x="440.721" y="-191.4" font-family="Times,serif" font-size="14.00">CGemv{inplace}</text>
</g>
<!-- x&#45;&gt;CGemv{inplace} -->
<g id="edge7" class="edge"><title>x&#45;&gt;CGemv{inplace}</title>
<path fill="none" stroke="black" d="M104.67,-448.162C59.0317,-424.687 -25.1935,-372.451 8.05713,-320.4 58.5978,-241.282 109.733,-258.36 199.721,-231.6 250.785,-216.415 309.967,-207.699 356.905,-202.763"/>
<polygon fill="black" stroke="black" points="357.435,-206.227 367.031,-201.736 356.729,-199.263 357.435,-206.227"/>
<text text-anchor="middle" x="94.0534" y="-324.6" font-family="Times,serif" font-size="14.00">2 TensorType(float64, matrix)</text>
</g>
<!-- Alloc&#45;&gt;CGemv{inplace} -->
<g id="edge5" class="edge"><title>Alloc&#45;&gt;CGemv{inplace}</title>
<path fill="none" stroke="red" d="M722.636,-277.068C754.715,-268.984 798.544,-253.389 778.721,-231.6 764.451,-215.914 609.811,-215.81 588.721,-213.6 565.969,-211.216 541.271,-208.45 518.687,-205.85"/>
<polygon fill="red" stroke="red" points="518.81,-202.341 508.474,-204.669 518.006,-209.295 518.81,-202.341"/>
<text text-anchor="middle" x="868.27" y="-235.8" font-family="Times,serif" font-size="14.00">0 TensorType(float64, vector)</text>
</g>
<!-- val=0.0 TensorType(float64, scalar) -->
<g id="node6" class="node"><title>val=0.0 TensorType(float64, scalar)</title>
<polygon fill="green" stroke="black" points="342.978,-391.2 124.465,-391.2 124.465,-355.2 342.978,-355.2 342.978,-391.2"/>
<text text-anchor="middle" x="233.721" y="-369" font-family="Times,serif" font-size="14.00">val=0.0 TensorType(float64, scalar)</text>
</g>
<!-- val=0.0 TensorType(float64, scalar)&#45;&gt;Alloc -->
<g id="edge3" class="edge"><title>val=0.0 TensorType(float64, scalar)&#45;&gt;Alloc</title>
<path fill="none" stroke="black" d="M290.413,-355.15C331.108,-343.57 387.456,-328.872 437.965,-320.4 531.99,-304.628 559.082,-324.927 651.721,-302.4 654.211,-301.795 656.745,-301.06 659.271,-300.239"/>
<polygon fill="black" stroke="black" points="660.661,-303.458 668.856,-296.742 658.262,-296.882 660.661,-303.458"/>
<text text-anchor="middle" x="522.1" y="-324.6" font-family="Times,serif" font-size="14.00">0 TensorType(float64, scalar)</text>
</g>
<!-- val=0.0 TensorType(float64, scalar)&#45;&gt;CGemv{inplace} -->
<g id="edge9" class="edge"><title>val=0.0 TensorType(float64, scalar)&#45;&gt;CGemv{inplace}</title>
<path fill="none" stroke="black" d="M212.755,-355.058C188.621,-333.246 154.968,-294.975 176.965,-266.4 199.719,-236.841 294.314,-217.233 363.737,-206.52"/>
<polygon fill="black" stroke="black" points="364.42,-209.957 373.786,-205.004 363.376,-203.035 364.42,-209.957"/>
<text text-anchor="middle" x="261.1" y="-280.2" font-family="Times,serif" font-size="14.00">4 TensorType(float64, scalar)</text>
</g>
<!-- CGemv{inplace}&#45;&gt;Elemwise{Composite{GT(scalar_sigmoid((&#45;((&#45;i0) &#45; i1))), i2)}} -->
<g id="edge10" class="edge"><title>CGemv{inplace}&#45;&gt;Elemwise{Composite{GT(scalar_sigmoid((&#45;((&#45;i0) &#45; i1))), i2)}}</title>
<path fill="none" stroke="black" d="M467.797,-178.454C488.057,-167.004 516.782,-152.082 543.624,-142.8 563.51,-135.923 585.175,-130.218 606.235,-125.551"/>
<polygon fill="black" stroke="black" points="607.146,-128.935 616.186,-123.411 605.674,-122.091 607.146,-128.935"/>
<text text-anchor="middle" x="628.27" y="-147" font-family="Times,serif" font-size="14.00">0 TensorType(float64, vector)</text>
</g>
<!-- val=1.0 TensorType(float64, scalar) -->
<g id="node8" class="node"><title>val=1.0 TensorType(float64, scalar)</title>
<polygon fill="green" stroke="black" points="570.978,-302.4 352.465,-302.4 352.465,-266.4 570.978,-266.4 570.978,-302.4"/>
<text text-anchor="middle" x="461.721" y="-280.2" font-family="Times,serif" font-size="14.00">val=1.0 TensorType(float64, scalar)</text>
</g>
<!-- val=1.0 TensorType(float64, scalar)&#45;&gt;CGemv{inplace} -->
<g id="edge6" class="edge"><title>val=1.0 TensorType(float64, scalar)&#45;&gt;CGemv{inplace}</title>
<path fill="none" stroke="black" d="M439.447,-266.239C434.39,-261.105 429.706,-255.051 426.965,-248.4 423.687,-240.449 424.57,-231.488 427.035,-223.282"/>
<polygon fill="black" stroke="black" points="430.371,-224.356 430.654,-213.765 423.828,-221.868 430.371,-224.356"/>
<text text-anchor="middle" x="511.1" y="-235.8" font-family="Times,serif" font-size="14.00">1 TensorType(float64, scalar)</text>
</g>
<!-- w -->
<g id="node9" class="node"><title>w</title>
<polygon fill="green" stroke="black" points="642.721,-302.4 588.721,-302.4 588.721,-266.4 642.721,-266.4 642.721,-302.4"/>
<text text-anchor="middle" x="615.721" y="-280.2" font-family="Times,serif" font-size="14.00">w</text>
</g>
<!-- w&#45;&gt;CGemv{inplace} -->
<g id="edge8" class="edge"><title>w&#45;&gt;CGemv{inplace}</title>
<path fill="none" stroke="black" d="M612.597,-266.046C609.645,-254.632 604.06,-240.256 593.721,-231.6 574.983,-215.912 550.595,-206.92 526.816,-201.859"/>
<polygon fill="black" stroke="black" points="527.16,-198.361 516.681,-199.922 525.846,-205.237 527.16,-198.361"/>
<text text-anchor="middle" x="690.27" y="-235.8" font-family="Times,serif" font-size="14.00">3 TensorType(float64, vector)</text>
</g>
<!-- TensorType(int8, vector) -->
<g id="node12" class="node"><title>TensorType(int8, vector)</title>
<polygon fill="blue" stroke="black" points="794.944,-36 638.499,-36 638.499,-0 794.944,-0 794.944,-36"/>
<text text-anchor="middle" x="716.721" y="-13.8" font-family="Times,serif" font-size="14.00">TensorType(int8, vector)</text>
</g>
<!-- Elemwise{Composite{GT(scalar_sigmoid((&#45;((&#45;i0) &#45; i1))), i2)}}&#45;&gt;TensorType(int8, vector) -->
<g id="edge13" class="edge"><title>Elemwise{Composite{GT(scalar_sigmoid((&#45;((&#45;i0) &#45; i1))), i2)}}&#45;&gt;TensorType(int8, vector)</title>
<path fill="none" stroke="black" d="M716.721,-88.6511C716.721,-76.5249 716.721,-60.019 716.721,-46.119"/>
<polygon fill="black" stroke="black" points="720.221,-46.1132 716.721,-36.1133 713.221,-46.1133 720.221,-46.1132"/>
<text text-anchor="middle" x="787.083" y="-58.2" font-family="Times,serif" font-size="14.00">TensorType(int8, vector)</text>
</g>
<!-- val=[ 0.5] TensorType(float32, (True,)) -->
<g id="node11" class="node"><title>val=[ 0.5] TensorType(float32, (True,))</title>
<polygon fill="green" stroke="black" points="835.409,-213.6 598.034,-213.6 598.034,-177.6 835.409,-177.6 835.409,-213.6"/>
<text text-anchor="middle" x="716.721" y="-191.4" font-family="Times,serif" font-size="14.00">val=[ 0.5] TensorType(float32, (True,))</text>
</g>
<!-- val=[ 0.5] TensorType(float32, (True,))&#45;&gt;Elemwise{Composite{GT(scalar_sigmoid((&#45;((&#45;i0) &#45; i1))), i2)}} -->
<g id="edge12" class="edge"><title>val=[ 0.5] TensorType(float32, (True,))&#45;&gt;Elemwise{Composite{GT(scalar_sigmoid((&#45;((&#45;i0) &#45; i1))), i2)}}</title>
<path fill="none" stroke="black" d="M716.721,-177.451C716.721,-165.325 716.721,-148.819 716.721,-134.919"/>
<polygon fill="black" stroke="black" points="720.221,-134.913 716.721,-124.913 713.221,-134.913 720.221,-134.913"/>
<text text-anchor="middle" x="803.404" y="-147" font-family="Times,serif" font-size="14.00">2 TensorType(float32, (True,))</text>
</g>
</g>
</svg>
